<?xml version="1.0" standalone="no"?>
<!DOCTYPE svg PUBLIC "-//W3C//DTD SVG 20010904//EN"
 "http://www.w3.org/TR/2001/REC-SVG-20010904/DTD/svg10.dtd">
<svg version="1.0" xmlns="http://www.w3.org/2000/svg"
 width="274.000000pt" height="274.000000pt" viewBox="0 0 274.000000 274.000000"
 preserveAspectRatio="xMidYMid meet">
<metadata>
Created by potrace 1.14, written by Peter Selinger 2001-2017
</metadata>
<g transform="translate(0.000000,274.000000) scale(0.100000,-0.100000)"
fill="#000000" stroke="none">
<path d="M2576 2662 c-3 -6 1 -15 9 -22 12 -10 13 -16 4 -27 -7 -7 -9 -16 -5
-20 3 -3 6 -2 6 4 0 6 8 13 18 15 12 4 18 -1 18 -13 0 -14 -3 -16 -15 -6 -12
10 -14 9 -8 -6 4 -10 7 -21 7 -23 0 -3 5 -2 12 2 7 4 8 3 4 -5 -4 -6 -11 -9
-16 -6 -5 3 -17 -6 -27 -19 -18 -23 -20 -23 -31 -6 -10 16 -54 25 -49 10 1 -3
-2 -5 -8 -5 -5 0 -9 4 -7 8 1 5 -2 6 -8 2 -6 -3 -8 -11 -5 -16 4 -5 0 -9 -7
-9 -11 0 -11 -2 0 -9 10 -6 10 -10 -3 -21 -14 -11 -19 -7 -16 13 1 5 -3 6 -9
2 -8 -5 -8 -11 1 -21 6 -7 15 -12 19 -9 5 3 12 1 15 -5 4 -6 1 -9 -6 -8 -6 2
-14 -3 -17 -11 -3 -8 0 -11 7 -7 6 4 11 2 11 -4 0 -7 -8 -9 -20 -5 -14 4 -22
1 -26 -10 -6 -13 -9 -14 -16 -3 -6 9 -7 6 -3 -9 5 -19 3 -21 -25 -18 -27 4
-29 2 -15 -11 12 -12 12 -19 2 -35 -6 -10 -13 -15 -15 -9 -2 6 -9 7 -14 4 -7
-5 -8 -2 -3 5 6 10 3 11 -13 2 -18 -10 -22 -41 -5 -41 3 0 2 7 -1 16 -3 8 -2
12 3 9 8 -4 12 -45 5 -45 -2 0 -10 7 -18 16 -15 14 -16 14 -17 -3 -1 -10 -1
-22 0 -27 1 -5 -4 -6 -11 -3 -8 3 -14 -2 -14 -13 0 -10 6 -16 13 -13 12 5 17
17 14 36 -2 12 16 8 29 -8 11 -13 10 -14 -5 -9 -12 5 -16 4 -12 -3 8 -12 -14
-23 -55 -29 -22 -3 -26 0 -23 16 2 11 0 22 -4 25 -5 2 -8 -3 -8 -13 0 -42 -2
-45 -20 -31 -15 11 -16 11 -5 -1 18 -21 15 -35 -5 -19 -15 13 -15 12 -4 -9 7
-14 18 -21 27 -18 22 8 17 -2 -7 -15 -12 -6 -19 -7 -15 -1 7 11 -21 38 -31 28
-3 -3 -1 -6 5 -6 7 0 12 -8 12 -17 0 -14 -2 -15 -9 -4 -6 9 -8 5 -8 -14 0 -19
3 -23 10 -16 14 14 27 14 27 -1 0 -6 -3 -8 -7 -5 -3 4 -15 -1 -26 -10 -15 -13
-18 -14 -12 -3 6 12 5 13 -5 3 -11 -10 -11 -15 1 -30 12 -16 12 -17 -2 -6 -12
10 -20 9 -37 -2 -15 -11 -23 -12 -28 -4 -4 8 -3 9 4 5 8 -5 10 -2 6 8 -4 10
-9 12 -17 5 -7 -5 -21 -16 -31 -23 -19 -13 -19 -14 10 -30 20 -12 22 -15 7
-11 -17 5 -21 2 -19 -12 2 -10 1 -12 -1 -5 -3 6 -9 12 -14 12 -6 0 -7 4 -4 10
3 6 -1 7 -9 4 -14 -5 -14 -8 -1 -21 18 -18 20 -29 2 -17 -7 5 -4 1 6 -8 11
-10 24 -15 30 -11 6 3 7 1 3 -5 -4 -6 -14 -8 -23 -5 -12 5 -14 3 -8 -8 4 -8 5
-11 0 -7 -5 5 -15 -1 -23 -13 -8 -11 -20 -18 -28 -15 -7 3 -16 1 -19 -5 -4 -5
-10 -7 -15 -4 -4 3 -13 -2 -20 -10 -9 -11 -16 -12 -26 -5 -10 9 -11 7 -7 -9 3
-12 9 -18 14 -15 5 3 9 0 9 -5 0 -6 -11 -11 -25 -11 -25 0 -33 -14 -15 -25 5
-3 15 -16 20 -28 10 -21 10 -21 -4 -3 -8 10 -20 15 -27 10 -7 -4 -10 -3 -6 3
3 5 1 10 -6 10 -7 0 -13 -8 -13 -18 0 -11 7 -16 19 -13 11 2 16 0 13 -4 -4 -4
-13 -7 -19 -7 -7 -1 -11 -7 -9 -14 1 -7 -2 -10 -8 -6 -6 3 -7 11 -4 17 4 6 -2
8 -17 4 -23 -7 -23 -7 -5 8 11 9 15 16 9 16 -18 0 -36 -29 -31 -48 3 -12 0
-19 -9 -19 -8 0 -12 8 -8 21 3 12 2 15 -1 8 -3 -6 -11 -9 -17 -5 -7 3 -9 3 -5
-2 4 -4 3 -14 -3 -22 -8 -9 -8 -17 -1 -26 7 -8 7 -18 2 -27 -8 -13 -13 -13
-32 -1 -22 13 -22 13 2 -13 20 -22 21 -26 6 -20 -15 6 -17 4 -11 -6 5 -9 4
-11 -4 -6 -6 4 -9 11 -6 16 3 5 1 11 -4 14 -5 4 -8 -5 -7 -19 2 -13 -1 -22 -5
-19 -5 3 -9 0 -9 -6 0 -7 -7 -5 -16 4 -22 22 -27 20 -13 -6 l12 -23 -22 19
c-22 20 -22 20 -15 0 4 -10 15 -25 23 -32 14 -11 13 -12 -5 -3 -12 6 -24 7
-28 3 -4 -3 -4 2 0 13 8 19 7 19 -10 2 -10 -9 -22 -14 -28 -11 -7 4 -8 2 -4
-5 4 -6 11 -9 16 -6 17 10 38 -7 36 -31 -1 -29 -2 -30 -17 -3 -9 17 -8 20 2
14 8 -6 10 -4 5 4 -6 9 -12 9 -25 -3 -10 -9 -21 -13 -25 -9 -4 5 -2 -4 5 -19
6 -15 16 -25 22 -21 6 4 7 1 2 -7 -6 -10 -12 -8 -26 8 -10 13 -19 17 -21 11
-2 -7 -18 -12 -35 -13 -17 -1 -35 -5 -40 -10 -4 -5 -3 -6 5 -2 7 4 12 1 12 -8
0 -10 -6 -13 -17 -10 -15 5 -15 4 -3 -4 17 -13 30 -6 30 14 0 8 5 14 11 14 7
0 5 -10 -5 -25 -9 -14 -14 -30 -10 -36 3 -6 -5 -4 -18 5 -24 16 -24 15 -24
-13 0 -22 4 -28 15 -24 12 3 11 1 -2 -7 -9 -6 -23 -8 -30 -5 -6 4 2 -5 18 -20
l30 -27 -31 16 c-28 13 -34 13 -50 0 -14 -10 -15 -14 -4 -12 8 2 17 6 20 9 3
4 12 0 20 -9 13 -14 12 -15 -3 -9 -10 4 -17 2 -17 -6 0 -8 -4 -6 -10 3 -5 8
-10 11 -10 6 0 -5 -10 -1 -22 10 -12 10 -18 14 -15 7 4 -6 3 -14 -3 -18 -5 -3
-10 -13 -10 -21 0 -8 5 -12 10 -9 6 4 8 10 5 15 -3 4 4 6 16 3 20 -5 20 -6 -3
-18 -13 -6 -28 -8 -33 -4 -6 4 -17 3 -25 -3 -13 -8 -12 -9 2 -5 9 3 19 -1 22
-9 3 -9 11 -12 17 -8 8 5 9 3 4 -5 -5 -9 -10 -10 -18 -2 -6 6 -18 11 -26 11
-14 0 -14 -1 -1 -10 14 -9 7 -14 -13 -11 -5 1 -6 -3 -3 -8 4 -5 1 -13 -5 -16
-5 -4 -8 -13 -5 -21 4 -10 -4 -13 -29 -12 -19 1 -32 5 -29 9 3 5 -2 6 -12 2
-15 -5 -15 -7 0 -15 9 -5 21 -6 28 -2 7 4 8 3 4 -4 -4 -7 -1 -12 8 -12 8 0 18
-5 21 -11 4 -5 -10 -3 -30 5 -20 9 -39 15 -43 15 -19 -3 -22 3 -12 21 9 17 7
24 -12 40 -20 17 -21 21 -8 30 12 9 11 10 -6 5 -13 -3 -26 1 -34 10 -7 8 -17
12 -23 8 -6 -3 -7 -1 -3 5 4 7 1 12 -8 12 -9 0 -16 4 -16 8 0 5 -7 9 -15 10
-8 1 -22 3 -30 4 -8 1 -13 4 -10 6 3 3 -3 14 -12 25 -10 12 -12 17 -4 12 9 -5
12 -3 9 6 -3 8 -14 13 -24 11 -17 -2 -17 -1 -3 10 9 7 14 19 11 27 -3 9 0 11
7 6 7 -4 10 -14 7 -22 -4 -9 -2 -11 6 -7 6 4 8 3 5 -2 -9 -16 9 -37 35 -41 17
-2 19 -1 8 6 -8 5 -18 7 -22 5 -13 -8 -9 11 5 25 7 8 7 11 1 8 -11 -6 -39 26
-56 63 -5 12 -7 11 -7 -3 -1 -10 -6 -15 -11 -12 -6 4 -8 10 -5 15 3 4 -4 6
-15 3 l-21 -6 21 -14 c11 -8 26 -11 33 -7 9 5 9 4 1 -5 -9 -10 -17 -9 -37 3
-13 9 -33 14 -43 11 -13 -4 -12 -2 3 6 13 7 23 16 23 21 0 12 -14 10 -29 -4
-11 -11 -13 -10 -7 5 16 45 18 52 8 39 -7 -11 -11 -10 -17 5 -4 10 -10 27 -12
37 -5 28 -11 32 -26 16 -9 -10 -9 -11 1 -6 6 4 12 5 12 2 0 -3 -9 -10 -21 -16
-19 -11 -20 -10 -9 9 6 12 7 21 3 21 -4 0 1 6 12 13 14 11 15 16 5 22 -9 6
-11 4 -5 -5 6 -10 4 -12 -8 -7 -9 3 -19 1 -23 -5 -4 -6 -3 -8 4 -5 6 5 8 -1 4
-15 -5 -21 -6 -21 -12 -2 -4 10 -5 25 -3 32 3 6 0 12 -6 12 -6 0 -11 -7 -11
-15 0 -8 -4 -15 -9 -15 -12 0 -9 33 4 43 6 5 4 7 -5 4 -8 -2 -14 -9 -13 -14 1
-5 -7 -9 -17 -9 -10 0 -18 4 -17 7 1 4 -7 14 -17 22 -19 14 -19 15 3 27 15 8
21 8 17 1 -4 -6 -2 -11 4 -11 7 0 9 -7 5 -17 -5 -14 -3 -15 5 -7 17 17 -5 54
-28 49 -10 -2 -19 3 -19 10 0 7 8 10 18 8 9 -3 19 -1 22 4 3 5 -4 9 -16 9 -16
-1 -21 4 -19 19 2 16 1 17 -7 5 -5 -8 -8 -17 -6 -20 2 -4 -2 -7 -10 -7 -10 0
-11 5 -4 18 13 25 11 33 -4 20 -8 -6 -18 -7 -22 -3 -5 4 -5 -2 -2 -13 7 -19 6
-19 -7 -2 -15 19 -31 24 -20 5 4 -7 3 -8 -5 -4 -9 6 -9 11 0 22 12 15 34 20
25 6 -3 -5 1 -9 8 -9 7 0 13 6 13 13 0 8 -11 11 -29 9 -26 -4 -27 -2 -18 18
11 21 10 21 -4 3 -9 -11 -19 -17 -22 -13 -4 4 -1 13 6 22 8 10 9 15 1 15 -6 0
-11 -6 -11 -12 0 -9 -4 -8 -10 2 -5 8 -10 22 -10 30 0 13 1 13 10 0 7 -11 10
-11 10 -2 0 8 5 10 12 6 7 -4 9 -3 5 2 -10 11 -58 14 -51 2 3 -4 1 -8 -5 -8
-23 0 -19 19 6 28 l28 10 -26 1 c-14 1 -29 -3 -35 -9 -6 -6 -10 -2 -11 12 -2
18 0 19 7 8 7 -12 9 -10 8 6 -2 19 -5 20 -23 10 -11 -6 -29 -18 -40 -26 -18
-14 -19 -14 -7 1 10 13 9 19 -3 29 -8 7 -15 18 -15 24 0 6 5 4 11 -4 9 -13 10
-13 6 0 -5 21 -33 19 -29 -2 1 -9 -1 -19 -6 -22 -10 -6 -9 30 1 41 4 4 -3 13
-15 21 -13 7 -15 11 -6 8 12 -3 15 -1 11 9 -3 8 -10 12 -17 8 -6 -3 -8 -2 -3
2 4 5 -1 18 -10 29 -15 18 -14 18 8 -2 14 -12 29 -19 34 -15 4 5 6 1 3 -8 -4
-9 -2 -22 3 -30 7 -12 10 -12 21 0 8 9 9 11 1 7 -6 -3 -14 -2 -18 4 -3 5 -1
10 4 10 7 0 7 7 -1 20 -7 11 -18 18 -25 16 -6 -3 -17 2 -23 9 -7 8 -15 13 -19
10 -12 -7 -64 -15 -57 -8 11 11 -15 32 -32 26 -14 -4 -14 -3 -3 5 15 11 9 42
-8 42 -6 0 -8 -7 -5 -15 4 -8 4 -15 1 -15 -17 0 -13 31 5 41 16 9 19 8 13 -2
-5 -8 -4 -10 4 -5 6 4 10 4 9 -1 -4 -17 14 -53 24 -47 6 4 8 2 4 -4 -3 -6 -3
-13 2 -16 4 -2 9 4 9 15 1 10 -4 19 -12 19 -7 0 -16 7 -19 16 -5 12 -2 15 11
10 11 -4 9 1 -7 14 -14 11 -34 18 -44 16 -13 -4 -16 -2 -8 6 11 11 5 38 -9 38
-4 0 -6 -8 -3 -17 5 -17 5 -17 -9 -1 -8 10 -17 15 -21 11 -4 -4 -4 0 0 10 5
13 2 16 -10 11 -9 -3 -14 -10 -11 -14 3 -5 0 -12 -6 -16 -7 -4 -9 -3 -5 4 3 5
-6 19 -20 30 -20 14 -24 21 -14 27 9 5 11 4 6 -3 -4 -7 -2 -12 4 -12 7 0 10 6
7 14 -3 7 0 20 6 27 10 11 9 11 -5 0 -13 -10 -18 -10 -18 -2 0 7 -4 9 -10 6
-6 -3 -7 1 -4 10 5 12 2 14 -12 8 -16 -6 -17 -5 -4 9 13 15 17 15 26 2 6 -8
15 -14 19 -14 5 0 0 9 -10 20 -17 19 -20 19 -44 4 -14 -9 -20 -11 -13 -3 6 7
12 21 12 32 0 14 -5 17 -22 12 -13 -4 -29 -14 -35 -23 -7 -9 -13 -11 -13 -6 0
5 -9 10 -20 11 -22 2 -27 -12 -7 -20 10 -4 10 -6 0 -6 -10 -1 -13 -235 -13
-1136 l0 -1135 1370 0 1370 0 0 1300 0 1300 -66 0 c-61 0 -65 -1 -59 -20 4
-12 2 -20 -5 -20 -6 0 -9 4 -6 9 3 5 -1 14 -8 20 -8 7 -17 8 -20 3z m-32 -138
c4 -9 4 -19 1 -22 -3 -3 -5 0 -5 7 0 9 -5 9 -20 1 -11 -6 -18 -15 -15 -20 8
-13 -9 -20 -25 -9 -12 7 -12 9 -1 9 7 0 11 6 8 14 -4 10 -1 13 7 10 7 -3 16 2
19 10 8 21 23 20 31 0z m60 -2 c3 -5 -1 -9 -9 -9 -8 0 -12 4 -9 9 3 4 7 8 9 8
2 0 6 -4 9 -8z m-157 -112 c2 -19 -8 -26 -20 -14 -7 7 2 34 12 34 4 0 7 -9 8
-20z m-25 -31 c2 -2 1 -3 -1 -2 -2 2 -9 -4 -15 -13 -10 -13 -12 -13 -13 4 -1
17 20 26 29 11z m-2328 -12 c-3 -8 -12 -14 -21 -14 -13 0 -13 2 3 14 10 7 19
13 21 13 1 0 0 -6 -3 -13z m46 -82 c0 -2 -6 -5 -13 -8 -8 -3 -14 1 -14 8 0 7
6 11 14 8 7 -3 13 -6 13 -8z m85 -85 c3 -5 1 -10 -4 -10 -6 0 -11 5 -11 10 0
6 2 10 4 10 3 0 8 -4 11 -10z m2029 2 c3 -5 -1 -9 -9 -9 -8 0 -12 4 -9 9 3 4
7 8 9 8 2 0 6 -4 9 -8z m-185 -139 c0 -10 -3 -13 -5 -6 -3 7 -13 9 -22 6 -15
-4 -15 -3 -2 6 22 15 30 14 29 -6z m58 3 c0 -8 -6 -12 -15 -9 -11 5 -11 7 0
14 7 5 13 9 14 9 0 0 1 -6 1 -14z m-1797 -2 c0 -8 -19 -13 -24 -6 -3 5 1 9 9
9 8 0 15 -2 15 -3z m1600 -169 c-7 -9 -15 -13 -19 -10 -3 3 1 10 9 15 21 14
24 12 10 -5z m-1365 -34 c3 -5 2 -12 -3 -15 -5 -3 -9 1 -9 9 0 17 3 19 12 6z
m1329 -13 c-3 -4 -11 -5 -19 -1 -21 7 -19 12 4 10 11 0 18 -5 15 -9z m-1285
-35 c2 -2 -3 -3 -11 -3 -9 0 -19 7 -22 16 -6 15 -4 15 11 3 10 -7 20 -15 22
-16z m81 -73 c0 -5 -2 -10 -4 -10 -3 0 -8 5 -11 10 -3 6 -1 10 4 10 6 0 11 -4
11 -10z m1060 0 c0 -5 -4 -10 -10 -10 -5 0 -10 5 -10 10 0 6 5 10 10 10 6 0
10 -4 10 -10z m11 -67 c12 -16 12 -17 -2 -6 -9 7 -20 9 -24 5 -5 -4 -5 -1 -1
6 9 16 11 15 27 -5z m-1054 -8 c0 -8 -4 -12 -9 -9 -5 3 -6 10 -3 15 9 13 12
11 12 -6z m53 -19 c0 -2 -7 -7 -16 -10 -8 -3 -12 -2 -9 4 6 10 25 14 25 6z
m108 -53 c-1 -5 3 -18 10 -30 11 -19 9 -24 -9 -33 -19 -11 -20 -10 -10 9 14
26 14 34 -1 25 -7 -4 -8 -3 -4 4 4 7 1 12 -6 12 -9 0 -9 3 2 10 18 12 21 12
18 3z m709 -38 c0 -8 -4 -15 -9 -15 -10 0 -11 14 -1 23 9 10 10 9 10 -8z m-29
-46 c9 -13 9 -16 -3 -16 -8 0 -12 4 -9 9 3 4 -2 8 -11 8 -9 0 -13 -4 -10 -10
3 -5 1 -10 -4 -10 -17 0 -13 18 6 29 10 5 18 9 18 8 0 -1 6 -9 13 -18z m-389
-232 c20 -23 21 -25 4 -38 -14 -12 -16 -12 -8 0 6 11 4 13 -7 9 -8 -4 -15 -1
-15 7 0 7 7 11 16 8 13 -4 13 -2 -1 10 -16 13 -24 27 -15 27 2 0 13 -11 26
-23z m155 -12 c-10 -8 -23 -14 -29 -14 -5 0 -1 6 9 14 11 8 24 15 30 15 5 0 1
-7 -10 -15z"/>
<path d="M2575 2570 c-4 -6 -11 -8 -16 -5 -5 4 -9 1 -9 -4 0 -6 5 -11 11 -11
5 0 7 -5 3 -12 -4 -7 -3 -8 4 -4 17 10 35 46 23 46 -5 0 -13 -5 -16 -10z"/>
<path d="M3 2395 c0 -7 6 -11 14 -8 7 3 13 6 13 8 0 2 -6 5 -13 8 -8 3 -14 -1
-14 -8z"/>
<path d="M43 2388 c-1 -11 1 -16 5 -12 4 5 11 12 15 15 5 3 2 9 -5 12 -9 3
-14 -3 -15 -15z"/>
<path d="M2313 2374 c0 -10 4 -11 14 -3 9 9 14 7 19 -5 3 -9 11 -13 16 -10 6
4 3 11 -8 17 -28 16 -41 16 -41 1z"/>
<path d="M195 2260 c-4 -6 -11 -7 -17 -4 -7 4 -8 2 -4 -5 6 -9 11 -9 22 0 14
11 18 19 10 19 -3 0 -8 -5 -11 -10z"/>
<path d="M226 2257 c3 -10 9 -15 12 -12 3 3 0 11 -7 18 -10 9 -11 8 -5 -6z"/>
<path d="M270 2221 c0 -6 4 -12 8 -15 5 -3 9 1 9 9 0 8 -4 15 -9 15 -4 0 -8
-4 -8 -9z"/>
<path d="M2093 2115 c-3 -9 -3 -19 1 -22 3 -4 6 1 6 11 0 10 5 14 12 10 7 -4
8 -3 4 4 -10 16 -15 15 -23 -3z"/>
<path d="M350 2109 c0 -5 5 -7 10 -4 6 3 10 8 10 11 0 2 -4 4 -10 4 -5 0 -10
-5 -10 -11z"/>
<path d="M472 1990 c16 -26 31 -30 35 -10 1 6 -1 5 -4 -1 -4 -8 -13 -4 -26 12
l-19 24 14 -25z"/>
<path d="M1960 1997 c0 -5 5 -17 10 -28 7 -13 7 -19 0 -19 -5 0 -10 6 -10 13
0 8 -4 7 -10 -3 -8 -13 -10 -13 -10 0 0 10 -5 7 -16 -8 -8 -12 -20 -20 -25
-17 -5 4 -9 1 -9 -4 0 -14 17 -14 25 -1 4 6 10 8 15 5 5 -3 11 -1 15 4 3 6 12
8 19 5 7 -3 21 8 31 23 15 22 15 25 3 15 -14 -11 -18 -10 -27 5 -6 10 -11 14
-11 10z"/>
<path d="M1895 1960 c-3 -5 -1 -10 4 -10 6 0 11 5 11 10 0 6 -2 10 -4 10 -3 0
-8 -4 -11 -10z"/>
<path d="M1756 1818 c3 -5 10 -6 15 -3 13 9 11 12 -6 12 -8 0 -12 -4 -9 -9z"/>
<path d="M1730 1799 c0 -5 5 -7 10 -4 6 3 10 8 10 11 0 2 -4 4 -10 4 -5 0 -10
-5 -10 -11z"/>
<path d="M1706 1708 c3 -5 10 -6 15 -3 13 9 11 12 -6 12 -8 0 -12 -4 -9 -9z"/>
<path d="M710 1706 c0 -2 7 -7 16 -10 8 -3 12 -2 9 4 -6 10 -25 14 -25 6z"/>
<path d="M816 1678 c3 -5 10 -6 15 -3 13 9 11 12 -6 12 -8 0 -12 -4 -9 -9z"/>
<path d="M1650 1679 c0 -5 -4 -7 -10 -4 -14 9 -12 -1 3 -13 10 -8 13 -6 14 9
1 10 0 19 -3 19 -2 0 -4 -5 -4 -11z"/>
<path d="M948 1533 c7 -3 16 -2 19 1 4 3 -2 6 -13 5 -11 0 -14 -3 -6 -6z"/>
<path d="M1013 1505 c0 -8 4 -12 9 -9 5 3 6 10 3 15 -9 13 -12 11 -12 -6z"/>
<path d="M1396 1442 c-3 -5 1 -9 9 -9 8 0 12 4 9 9 -3 4 -7 8 -9 8 -2 0 -6 -4
-9 -8z"/>
<path d="M1016 1399 c8 -13 44 -31 44 -22 0 4 -11 13 -25 20 -14 6 -23 7 -19
2z"/>
<path d="M1075 1390 c-11 -18 6 -32 23 -18 13 11 15 11 10 -4 -8 -21 26 -55
38 -37 4 7 3 10 -2 7 -5 -3 -14 0 -21 7 -10 11 -10 15 0 19 9 3 8 7 -3 15 -10
7 -19 6 -29 -2 -12 -10 -14 -9 -8 6 7 18 2 23 -8 7z"/>
<path d="M1313 1369 c-2 -23 3 -25 10 -4 4 8 3 16 -1 19 -4 3 -9 -4 -9 -15z"/>
</g>
</svg>
